<?xml version="1.0" encoding="UTF-8"?>
<!DOCTYPE svg PUBLIC "-//W3C//DTD SVG 1.1//EN" "http://www.w3.org/Graphics/SVG/1.1/DTD/svg11.dtd">
<!-- Creator: CorelDRAW 2018 (64 Bit) -->
<svg xmlns="http://www.w3.org/2000/svg" xml:space="preserve" width="1200px" height="1200px" version="1.1" style="shape-rendering:geometricPrecision; text-rendering:geometricPrecision; image-rendering:optimizeQuality; fill-rule:evenodd; clip-rule:evenodd"
viewBox="0 0 120000 120000"
 xmlns:xlink="http://www.w3.org/1999/xlink">
 <defs>
  <style type="text/css">
   <![CDATA[
    .fil0 {fill:white}
    .fil1 {fill:white;fill-rule:nonzero}
   ]]>
  </style>
 </defs>
 <g id="Camada_x0020_1">
  <metadata id="CorelCorpID_0Corel-Layer"/>
  <g id="_1964200021984">
   <path class="fil0" d="M21020 14177c-16007,9395 -17739,32076 -10709,48219 3679,8447 8108,13696 13484,20102 6385,7608 21993,20804 31620,24682 -1654,-12405 553,-7328 -7854,-13505 -2231,-1640 -4296,-3176 -6390,-4812 -4383,-3425 -7705,-7018 -11486,-10911 -6920,-7124 -13981,-18464 -15510,-29278 -1956,-13840 3799,-26619 14414,-29613 6396,-1804 13918,92 18813,2643 2836,1478 4459,2834 6500,4702 1832,1678 4109,4531 6031,5590 5205,-3797 11405,-14160 26442,-13649 8966,305 14608,5970 17320,12921 654,1677 1791,6905 2387,7761 2611,-520 1021,-2957 6573,-3105 -532,-9545 -8631,-21074 -19524,-24113 -10006,-2791 -21967,624 -29939,6897 -1293,1019 -1923,1921 -3259,2677 -11726,-7953 -24507,-15663 -38913,-7208z"/>
   <path class="fil0" d="M79919 81475c-484,-3345 7399,-7588 6306,-17084 -335,-2903 -949,-4662 -2993,-5150 -1638,1079 -2265,4033 -3446,6090 -149,260 -266,543 -458,769 -5909,6928 -7526,8059 -8173,8706 -10514,10469 -15202,17917 -11284,34694 10181,-2083 26181,-12172 32468,-17289 8251,-6714 16818,-15795 19887,-29857 724,-3316 2767,-21540 -66,-22559 -3067,-1103 -3004,6399 -3483,8705 -742,3578 -1582,6411 -3009,9555 -2667,5875 -6546,10806 -10438,14194 -2501,2177 -11936,10163 -15311,9226z"/>
   <path class="fil0" d="M93394 71613c7275,-3380 8434,-21457 4623,-22503 -4019,492 -2393,6756 -2571,10711 -209,4644 -1366,7754 -2052,11792z"/>
   <path class="fil0" d="M100443 64073c1877,-3280 2973,-3821 4894,-9034 4193,-11378 -1780,-15464 -3076,-10317 -450,1786 -29,5018 -48,7017 -46,4925 -1472,8486 -1770,12334z"/>
   <path class="fil0" d="M89111 74993c5356,-2915 6673,-15043 3530,-17686 -3672,323 -2598,4505 -2593,7872 5,3507 -499,6607 -937,9814z"/>
   <path class="fil1" d="M44205 55444l4131 0 -9599 -21263 -3888 0 -9569 21263 4071 0 2096 -4921 10632 0 2126 4921zm-11421 -8019l3979 -9295 4010 9295 -7989 0z"/>
   <path id="1" class="fil1" d="M60578 55748c3493,0 6470,-1245 8445,-3554l-2552 -2430c-1549,1701 -3463,2521 -5680,2521 -4405,0 -7594,-3098 -7594,-7473 0,-4374 3189,-7472 7594,-7472 2217,0 4131,820 5680,2491l2552 -2400c-1975,-2309 -4952,-3554 -8414,-3554 -6531,0 -11392,4587 -11392,10935 0,6349 4861,10936 11361,10936z"/>
   <path id="2" class="fil1" d="M87887 44387c1640,-881 2734,-2491 2734,-4678 0,-3372 -2734,-5528 -7837,-5528l-9964 0 0 21263 10571 0c5468,0 8323,-2126 8323,-5771 0,-2765 -1549,-4557 -3827,-5286zm-5529 -7108c2734,0 4283,972 4283,2947 0,1944 -1549,2916 -4283,2916l-5589 0 0 -5863 5589 0zm790 15067l-6379 0 0 -6136 6379 0c2977,0 4587,941 4587,3068 0,2126 -1610,3068 -4587,3068z"/>
   <path class="fil1" d="M37479 70414c2560,0 3773,-1280 3773,-2775 0,-3422 -5533,-2129 -5533,-4115 0,-709 587,-1269 2027,-1269 813,0 1733,240 2573,733l546 -1346c-813,-534 -1986,-827 -3106,-827 -2560,0 -3760,1280 -3760,2789 0,3461 5547,2144 5547,4157 0,693 -614,1213 -2067,1213 -1147,0 -2333,-426 -3080,-1026l-600 1346c774,667 2227,1120 3680,1120z"/>
   <path id="1" class="fil1" d="M45532 63081c-1147,0 -2253,294 -3013,880l653 1214c533,-440 1360,-707 2160,-707 1186,0 1773,573 1773,1546l0 107 -1840 0c-2160,0 -2960,933 -2960,2120 0,1240 1027,2133 2653,2133 1067,0 1840,-347 2240,-960l0 867 1573 0 0 -4173c0,-2053 -1186,-3027 -3239,-3027zm-227 6080c-853,0 -1360,-387 -1360,-987 0,-520 307,-946 1440,-946l1720 0 0 826c-280,734 -987,1107 -1800,1107z"/>
   <path id="2" class="fil1" d="M56957 60362l-1960 0 -1800 1826 1440 0 2320 -1826zm-827 2799l0 3600c0,1427 -786,2147 -1946,2147 -1053,0 -1667,-614 -1667,-1907l0 -3840 -1666 0 0 4067c0,2146 1240,3146 3066,3146 920,0 1760,-347 2293,-1000l0 907 1587 0 0 -7120 -1667 0z"/>
   <path id="3" class="fil1" d="M65289 60388l0 3653c-560,-653 -1373,-960 -2293,-960 -2066,0 -3599,1427 -3599,3640 0,2213 1533,3653 3599,3653 974,0 1800,-333 2360,-1013l0 920 1600 0 0 -9893 -1667 0zm-2093 8559c-1200,0 -2119,-866 -2119,-2226 0,-1360 919,-2226 2119,-2226 1200,0 2120,866 2120,2226 0,1360 -920,2226 -2120,2226z"/>
   <path id="4" class="fil1" d="M75835 66761c0,-2226 -1520,-3680 -3600,-3680 -2119,0 -3679,1520 -3679,3640 0,2120 1546,3653 3933,3653 1226,0 2226,-400 2866,-1160l-893 -1026c-507,520 -1133,773 -1933,773 -1240,0 -2107,-667 -2307,-1707l5586 0c14,-160 27,-360 27,-493zm-3600 -2346c1094,0 1880,706 2013,1733l-4039 0c160,-1040 946,-1733 2026,-1733z"/>
  </g>
 </g>
</svg>
